<svg width="77" height="73" viewBox="0 0 77 73" fill="none" xmlns="http://www.w3.org/2000/svg">
<g clip-path="url(#clip0_3801_245)">
<path d="M71.7996 41C72.0051 40.244 72.6218 39.416 72.0565 38.588C72.6218 38.372 73.2898 38.156 73.9065 37.904C73.9579 37.4 73.7009 35.888 71.2857 34.844C71.2857 34.844 72.3648 34.592 71.851 33.08C68.9218 33.26 69.6927 30.956 68.8704 29.804C71.3371 28.832 71.9023 26.816 71.1829 25.556C70.4635 26.456 69.4871 27.248 68.0996 27.392C61.4192 15.26 44.4097 12.2 34.2862 12.596C34.2862 12.596 33.9779 14.36 33.4126 15.044C26.1155 13.676 26.3211 8.05999 22.878 4.53199C22.0558 3.73999 19.8461 1.79599 17.3281 1.47199C16.8142 1.43599 16.6601 1.65199 16.7115 1.79599C21.9017 4.24399 22.4156 8.41999 22.9294 12.452C23.3405 15.836 26.3724 17.744 29.5585 19.4C29.4043 19.508 29.096 19.868 28.9932 20.084C24.9336 20.912 20.0003 20.408 16.6087 18.824C9.72268 15.656 11.4185 9.64399 9.51713 4.92799C8.95186 3.70399 8.07826 2.01199 6.22829 1.36399C5.66302 1.14799 5.09775 1.36399 5.40608 1.65199C6.74217 2.98399 7.66716 4.42399 7.82132 6.07999C7.87271 10.328 6.38245 14.864 8.69492 18.86C12.1893 24.26 18.5614 28.184 26.3724 29.336C26.1155 31.244 26.3724 32.9 26.8349 34.7C18.4587 37.868 11.9838 41.216 1.24364 52.844C0.935307 53.312 1.24364 53.744 2.11723 53.168C12.6518 46.328 29.9696 42.944 40.8639 54.32C46.1055 60.116 45.643 64.184 45.3347 67.964C45.3347 69.296 44.2041 71.132 45.8999 71.636C47.6985 72.176 49.5485 68.936 49.5485 68.504C49.9596 68.216 50.1138 67.64 50.1652 67.244C50.5249 67.028 50.7304 66.128 50.679 65.624C51.7582 64.724 52.7346 62.456 51.5526 61.124C51.9637 60.368 52.0151 58.388 51.3471 57.308C51.7068 56.156 52.1179 53.528 50.7304 52.34C52.6832 50.792 55.2526 49.532 57.822 48.776C58.4386 52.16 59.415 56.48 55.2012 58.784C54.9443 58.928 54.9443 59.144 55.5095 59.036C62.2928 57.452 63.783 48.344 64.2455 47.228C66.5066 46.4 72.9815 45.176 74.8829 44.672C76.887 44.132 75.4995 42.224 74.7287 41.54C74.2662 41.216 73.1357 41.036 71.7996 41V41ZM70.7718 33.404L70.8746 33.944C69.4871 34.196 67.3802 35.132 66.9177 34.484C66.5066 33.908 68.3566 33.836 68.6649 33.548C68.8191 33.404 68.6649 33.116 68.2538 33.08C67.2774 33.08 66.7121 33.116 66.301 33.188C65.4274 33.692 65.5302 34.916 65.8899 35.312C64.04 35.888 62.2414 37.184 61.1622 37.976C60.6997 36.284 62.4469 35.096 64.1941 34.232C64.6052 33.98 64.3483 32.288 64.04 31.424C63.7316 31.316 63.1664 31.424 63.115 31.244C63.115 31.064 65.3247 31.028 66.1983 30.992C65.9413 29.948 67.7913 29.768 68.3566 30.38C69.0246 31.352 68.5621 33.26 70.7718 33.404V33.404ZM70.669 27.032C70.5662 27.86 69.7954 28.58 68.7677 28.976C65.8385 29.876 61.9844 28.544 59.3122 29.84C59.3636 29.156 59.8775 28.184 61.3678 28.112C65.1705 28.004 67.8941 28.868 70.669 27.032V27.032ZM66.6094 27.356C61.3678 27.176 55.6637 27.716 50.8846 28.724C50.1652 33.872 41.4806 35.816 36.3931 31.856C36.3931 31.856 34.4918 32.144 28.6335 34.016C27.9141 33.332 27.2974 31.712 28.428 31.352C29.9182 30.776 31.1002 30.308 32.6418 30.056C33.9265 29.84 36.0334 30.308 37.0612 30.524C42.8166 32.972 48.7263 33.008 50.2165 25.808C50.2165 25.808 57.6678 24.512 64.7594 24.836C64.8108 24.836 65.8899 25.88 66.6094 27.356ZM28.0169 30.452V29.552L30.2266 29.768C29.5071 29.948 28.7877 30.2 28.0169 30.452ZM35.314 13.28C57.6164 13.676 64.04 24.008 64.04 24.008C59.7747 23.756 54.2762 24.296 49.9596 24.944C47.6471 20.84 44.1527 19.148 30.7918 19.976C32.6418 17.636 34.8515 16.088 35.314 13.28V13.28ZM26.0127 15.764C24.8822 14.288 24.1114 12.38 23.803 10.544C23.803 10.472 23.9058 10.472 23.9058 10.508C24.1628 11.516 24.4197 12.308 25.0364 13.028C25.1391 13.1 25.3447 13.064 25.2933 12.92C24.8308 11.984 24.3683 10.904 24.1114 9.71599C24.1628 9.67999 24.2141 9.60799 24.2655 9.67999C24.6766 10.436 25.3447 11.732 25.8586 12.128C25.9099 12.2 26.1669 12.164 26.1669 12.056C25.9613 11.66 25.5502 10.868 25.3961 10.472C25.2933 10.328 25.4475 10.4 25.5502 10.436C26.7835 12.812 28.6335 14.072 30.9974 15.08C31.871 15.476 31.5626 17.132 29.6613 17.42C28.0169 17.564 26.7835 16.628 26.0127 15.764V15.764ZM28.3766 26.708C27.9141 26.276 25.8072 27.428 25.5502 27.212C25.3961 27.104 26.4752 26.816 26.2183 26.672C25.4988 26.348 24.2655 26.996 24.1114 26.852C24.0086 26.708 24.5739 26.672 24.3683 26.456C23.8544 26.096 22.0558 26.816 21.9017 26.6C21.7989 26.456 23.2378 26.276 22.9294 25.988C22.4669 25.664 20.9767 26.348 18.8184 25.664C10.8018 22.748 8.69492 16.844 8.43798 14.396C8.43798 14.324 8.48937 14.288 8.54075 14.36C9.15741 16.52 10.3907 19.508 13.1657 20.984C13.3199 21.056 13.474 20.912 13.3712 20.84C10.3907 19.22 9.26019 15.548 9.15741 12.38C9.15741 12.272 9.2088 12.236 9.26019 12.344C9.46574 14.756 10.4421 17.636 13.1657 19.436C13.2685 19.508 13.474 19.4 13.3712 19.292C10.6991 17.06 9.92823 14.216 9.92823 11.48C9.92823 11.372 10.031 11.408 10.031 11.444C10.1852 14.72 12.2921 17.492 16.1462 19.58C23.2892 23.36 35.2112 19.364 41.9944 20.984C52.1179 23.072 48.9832 29.3 45.9513 30.38C45.2833 29.876 44.8208 30.56 44.5125 30.452C44.2041 30.308 44.8722 30.092 44.4611 29.948C44.1014 29.84 43.6389 30.236 43.2791 30.128C43.0736 30.056 43.6389 29.804 43.3305 29.66C42.7139 29.372 41.9944 30.272 41.6861 30.128C41.4292 30.02 42.7139 29.588 42.2 29.3C41.5319 28.94 40.6583 29.876 40.35 29.732C39.8875 29.516 42.2 28.796 41.3264 28.544C40.8639 28.364 39.3223 29.48 39.0139 29.264C38.757 29.084 40.8639 28.508 40.2472 28.184C39.7334 28.004 37.164 29.264 36.8042 29.048C36.4959 28.904 39.0653 28.04 38.5 27.68C37.7806 27.32 35.314 29.156 34.8515 28.832C34.4918 28.616 36.9584 27.968 36.3417 27.536C35.7765 27.14 33.2585 28.904 32.5904 28.544C32.2821 28.4 35.1084 27.608 34.3376 27.212C33.6182 26.924 30.6377 28.616 30.3807 28.328C30.1238 28.112 32.8473 27.392 32.4876 27.068C31.7168 26.564 28.9932 28.22 28.6335 28.004C28.3252 27.788 30.7918 27.212 30.3293 26.96C29.5585 26.6 27.0405 27.968 26.7835 27.68C26.6294 27.428 28.9418 27.212 28.3766 26.708V26.708ZM9.87685 48.2C7.71854 49.208 6.07412 50.072 3.96721 51.512C3.76166 51.62 3.71027 51.44 3.86443 51.296C16.5573 38.012 31.7168 33.764 35.4168 33.08C36.1362 32.972 36.0848 33.26 35.7765 33.404C28.8391 35.276 17.2767 40.1 12.2921 45.968C11.5727 46.868 10.956 47.696 9.87685 48.2V48.2ZM19.435 46.184C16.7629 46.724 14.5532 47.12 12.2407 47.696C12.0351 47.768 11.6754 47.732 11.8296 47.552C17.2767 40.676 27.2974 36.536 36.907 33.62C37.2153 33.512 37.4209 33.764 37.164 33.8C30.021 36.212 24.8822 41.072 20.5656 45.608C20.4628 45.752 19.8461 46.112 19.435 46.184V46.184ZM22.0044 46.04C21.6447 45.932 21.6447 45.68 21.7475 45.5C26.3211 41.54 29.9182 36.536 36.907 34.52C37.4723 34.412 38.1917 34.124 38.757 34.304C40.0931 34.7 42.4055 35.312 45.2833 34.772C50.936 33.548 51.6554 29.732 51.6554 29.732C53.0429 29.48 54.4304 29.156 55.972 29.048C54.3276 35.672 41.1722 38.408 40.6583 45.356C36.7528 45.896 31.871 43.736 31.1002 40.532C30.1238 41.9 28.8391 43.52 26.5266 44.888C25.2419 45.608 23.3405 46.328 22.0044 46.04V46.04ZM47.6471 54.284C46.7735 53.78 46.0027 53.204 44.975 52.988C44.8722 50.432 47.3902 47.48 48.2124 46.58C48.5207 46.22 48.8805 46.472 49.0346 46.94C50.8846 50.9 48.1096 52.52 47.6471 54.284V54.284ZM50.0624 52.808C50.9874 53.204 50.4735 56.444 49.4971 58.1C48.7777 57.38 47.9555 56.804 47.493 56.48C48.1096 55.436 49.5999 52.7 50.0624 52.808ZM48.5207 39.992C48.3666 40.028 47.9555 39.668 47.7499 39.74C47.493 39.848 48.418 40.748 48.418 40.748C48.4693 46.112 44.4097 47.228 44.4097 50.468C43.5875 50 42.5083 49.352 41.4806 49.1C39.6306 44.06 48.5207 37.364 49.0346 37.652C49.2402 37.796 48.7263 39.884 48.5207 39.992V39.992ZM26.1155 45.932C28.2224 44.996 29.8154 43.412 30.6377 42.224C30.8946 42.656 31.2543 43.124 31.4599 43.52C30.3807 44.456 28.7877 45.716 27.1947 46.112C26.6808 46.184 25.7558 46.184 26.1155 45.932ZM36.5987 49.496C34.132 48.02 31.4599 47.084 28.4794 46.436C29.6613 45.86 31.2029 44.852 32.1279 43.988C32.2821 44.096 32.4876 44.276 32.6418 44.348C32.539 46.472 34.0807 48.128 36.7528 49.1C37.1126 49.244 36.8556 49.64 36.5987 49.496ZM33.6696 44.996C35.7765 46.004 38.0375 46.436 40.4528 46.328V48.776C33.8237 48.236 33.6696 44.996 33.6696 44.996ZM40.5556 52.268C39.8361 51.98 37.0098 50.108 38.0376 49.532C39.1681 48.74 44.05 51.008 44.05 51.008C43.9986 51.584 43.793 52.088 43.8958 52.7C43.9472 52.664 41.3264 52.628 40.5556 52.268ZM42.6625 54.824C42.3028 54.356 41.5833 53.78 41.9944 53.42C42.6625 52.988 45.643 53.708 47.1846 54.896C47.0305 55.436 46.8249 55.796 46.6194 56.336C45.0777 56.156 43.4333 55.94 42.6625 54.824ZM45.2319 58.424C44.9236 58.028 44.4611 57.128 44.975 56.84C45.5916 56.588 48.2124 57.488 49.1374 58.604C49.2916 58.856 48.5721 59.828 48.2638 59.864C48.0069 59.972 45.6944 59.18 45.2319 58.424V58.424ZM49.3429 62.276C49.3429 62.672 48.8804 63.176 48.6749 63.176C48.418 63.248 46.2597 62.348 46.0541 61.484C45.9513 61.052 45.8486 60.224 46.1569 60.152C46.8249 60.008 48.8805 61.34 49.3429 62.276V62.276ZM46.1569 71.132C45.4888 70.88 45.8999 69.836 46.3624 69.26C46.7735 69.44 47.0819 69.8 47.4416 70.052C47.2874 70.34 46.7735 71.312 46.1569 71.132ZM47.8013 69.512C47.236 69.116 47.0305 68.756 46.311 68.432C46.0541 68.252 46.2597 67.856 46.4652 67.892C47.0305 68.072 47.9041 68.72 48.1096 69.296C48.161 69.44 48.0069 69.62 47.8013 69.512ZM48.418 68.504C47.9041 68.036 47.1846 67.532 46.5166 67.136C46.2083 66.992 46.568 66.596 46.8763 66.668C47.6985 66.848 48.3152 67.64 48.6749 68.252C48.7263 68.468 48.5207 68.576 48.418 68.504V68.504ZM48.9318 67.46C48.6749 66.992 47.236 66.02 46.4652 65.552C46.0541 65.336 46.7735 64.832 47.0305 64.976C48.2638 65.588 49.754 66.992 48.9318 67.46ZM49.4457 66.272C48.8804 65.336 47.9041 64.508 46.7221 63.932C46.311 63.752 46.3624 63.068 46.7221 63.104C48.1096 63.428 49.5485 64.652 49.8568 65.624C49.9596 66.02 49.6513 66.596 49.4457 66.272ZM51.0388 61.952C51.5012 62.204 51.1415 63.932 50.3193 64.724L49.2916 63.716C49.8568 63.068 50.7304 61.808 51.0388 61.952V61.952ZM49.8568 61.808C49.6513 61.232 49.1888 60.908 48.9318 60.368C49.1374 60.188 50.4735 58.136 50.7304 58.208C51.1929 58.352 50.7304 60.836 49.8568 61.808ZM50.6276 51.476C51.3985 49.28 50.1652 47.3 48.9832 45.5C49.3943 44.06 49.4971 42.872 49.7541 41.432C49.9082 41.144 50.4221 41.072 50.6276 41.288C51.1929 44.492 53.0429 45.608 57.1539 45.464L57.4109 47.624C54.8415 48.344 52.6318 49.892 50.6276 51.476ZM57.2053 44.456C53.454 45.248 51.2443 43.628 51.604 39.992C51.1415 39.488 49.9082 40.64 49.7541 40.28C49.7027 36.464 52.1179 36.248 53.0429 35.348C53.9165 35.42 54.8929 35.672 55.4067 36.104C56.8456 37.688 56.4859 39.632 57.3595 41.432C57.565 41.756 57.9762 41.432 57.9762 41.432C56.9998 38.984 58.0789 35.456 53.7623 34.448C55.4581 32.792 56.1262 30.992 56.8456 29.084C57.1026 28.868 57.7192 28.796 58.0275 28.904C57.9248 29.66 57.4623 30.344 57.6164 31.208C57.7192 31.712 59.1067 30.596 59.9289 30.308C61.0594 29.876 62.9094 29.984 64.5538 30.164C64.8622 30.2 64.8622 30.416 64.5024 30.452C62.9608 30.56 60.5456 30.776 60.4428 31.244C60.4428 31.604 62.2414 31.928 63.3205 31.964C63.4747 32.36 63.6288 32.9 63.5261 33.368C61.5219 34.052 59.0039 35.816 60.4428 38.732C58.9525 40.352 57.9248 42.404 57.2053 44.456ZM64.04 45.356C62.2928 49.028 61.5219 53.888 59.3122 56.012C59.2609 56.048 59.1581 56.048 59.2095 55.976C61.8303 52.304 61.3678 49.028 62.9094 45.5C63.0122 45.356 62.8066 45.212 62.6011 45.392C60.8539 47.012 60.5456 53.42 59.0553 55.4C59.0039 55.472 58.8498 55.508 58.9011 55.328C60.6483 50.684 59.2609 46.22 61.9844 42.656C62.0872 42.512 61.7789 42.332 61.5219 42.548C60.34 44.06 58.9011 47.156 59.3122 50.828C59.3122 51.044 59.1067 51.044 59.0553 50.828C58.2845 46.544 57.7192 42.26 61.9844 38.588C63.783 37.04 66.5066 35.6 68.3052 35.24C72.5704 34.592 73.187 37.436 73.187 37.436C68.2024 38.444 65.5302 42.26 64.04 45.356V45.356ZM65.4788 45.644C65.2219 45.536 65.2733 45.176 65.4788 45.104C66.9691 44.816 71.1829 44.132 71.3885 44.456C71.4912 44.564 65.7872 45.752 65.4788 45.644V45.644ZM74.6773 43.808C71.5426 43.7 68.5107 43.916 65.7872 44.348C66.301 42.188 70.4121 38.876 71.2343 39.2C72.0051 39.488 70.3093 41.036 71.2857 41.504C72.0051 41.792 72.8787 41.612 73.444 41.756C74.8315 42.188 75.1398 43.7 74.6773 43.808V43.808Z" fill="black"/>
<path d="M50.2678 25.772C48.7775 32.972 42.9193 32.9361 37.1124 30.4881C36.0846 30.3081 33.9777 29.84 32.693 30.02C31.1514 30.272 29.9695 30.74 28.4792 31.316C27.3487 31.676 27.9653 33.332 28.6848 33.98C34.4916 32.108 36.4444 31.82 36.4444 31.82C41.5318 35.78 50.2164 33.8361 50.9358 28.6881C55.6635 27.6801 61.419 27.14 66.6606 27.32C65.9412 25.844 64.862 24.7641 64.862 24.7641C57.7191 24.4761 50.2678 25.772 50.2678 25.772V25.772Z" fill="#3C1E5E"/>
<path d="M75.5507 41.0722C75.1396 40.7122 74.3688 40.4242 73.2383 40.3162C73.3924 39.9202 73.4952 39.4882 73.4438 39.0202L74.4716 38.6602C74.8313 38.5162 75.0882 38.3002 75.0882 38.0122C75.191 37.1122 74.6257 35.7802 72.9813 34.7362C73.2383 34.3402 73.341 33.7642 73.0327 32.9362C72.9299 32.5402 72.4161 32.2882 71.8508 32.3242C71.0286 32.3602 70.823 32.2522 70.5661 30.9562C70.5147 30.7042 70.4633 30.4162 70.3605 30.1642C72.673 28.9042 73.2383 26.9242 72.3647 25.3042C72.005 24.5842 70.7203 24.7642 70.3091 25.1962C69.8467 25.7722 69.3842 26.1682 68.8703 26.3842C65.7356 21.2002 60.2885 17.1322 53.0941 14.5762C47.39 12.5602 40.5554 11.5522 34.3374 11.8042C33.7722 11.8402 33.3611 12.1282 33.2583 12.4882C33.1555 12.9202 33.0013 13.5682 32.8472 14.0722C29.25 13.1002 27.9653 10.7242 26.5778 8.20418C25.807 6.80018 25.0362 5.36018 23.8029 4.10018C22.6209 2.94818 20.3085 1.04018 17.5335 0.680181C15.3238 0.536181 15.2724 2.12018 16.0433 2.44418C20.8224 4.71218 21.2848 8.67218 21.7987 12.5242C22.2098 15.9082 24.9848 17.9242 27.8111 19.5082C24.214 20.0482 20.0515 19.5442 17.1738 18.2122C12.8058 16.1962 12.1378 12.9202 11.6753 9.32018C11.3669 6.98018 10.5961 4.74818 10.5447 4.71218C9.82529 3.12818 8.79752 1.43618 6.742 0.680181C5.97117 0.392181 5.09758 0.464181 4.53231 0.860181C4.1212 1.22018 4.06981 1.72418 4.48092 2.12018C6.69061 4.24418 6.84477 6.15218 6.63922 8.24018C5.71423 14.0002 6.12534 16.9162 8.12948 20.0122C12.8572 26.3122 19.8974 29.0482 25.1903 29.9482C25.0876 31.5682 25.2931 32.9722 25.6015 34.2682C18.0474 37.1842 11.2128 40.6042 0.318477 52.3762C-0.555122 53.2042 0.52403 55.0762 2.93927 53.7082C9.61973 49.3882 17.8418 47.1562 24.9848 47.7322C30.9458 48.2362 35.9819 50.5762 39.9901 54.7522C44.9234 60.2242 44.6665 64.5802 44.1012 69.0802C43.947 70.2322 43.4845 71.7802 45.5401 72.3922C46.2595 72.6082 47.0303 72.5362 47.8011 72.2122C49.2914 71.5282 50.4219 69.7282 50.6789 68.8642C51.1414 68.4322 51.2955 67.8922 51.3469 67.5322C51.8094 67.0282 51.8608 66.3082 51.9122 65.8762C53.0941 64.6882 53.8649 62.5642 52.8372 61.0162C53.1969 60.0082 53.1455 58.3522 52.5802 57.2362C52.7858 56.4442 53.2997 54.0682 52.2205 52.4482C53.608 51.4402 55.2524 50.6122 56.9996 49.9642C57.3593 52.9882 58.1815 56.0122 54.5844 58.1722C53.7108 58.6762 53.7622 60.2242 55.9205 59.8282C62.4981 58.3522 64.6051 50.6122 65.2731 47.8042C66.9175 47.3002 74.6771 45.6082 75.3452 45.4642C76.4757 45.1762 76.8868 44.6002 77.041 44.2042C77.3493 43.0162 76.2188 41.6122 75.5507 41.0722V41.0722ZM74.8313 44.7082C72.8786 45.2122 66.455 46.4362 64.194 47.2642C63.7315 48.3802 62.2926 57.4882 55.458 59.0722C54.9441 59.1802 54.8927 58.9282 55.1496 58.8202C59.3635 56.5162 58.4385 52.1962 57.7704 48.8122C55.201 49.5682 52.6316 50.8282 50.6789 52.3762C52.015 53.5642 51.6552 56.1922 51.2955 57.3442C51.9636 58.4242 51.9122 60.3682 51.5011 61.1602C52.7344 62.4922 51.758 64.7602 50.6275 65.6602C50.7303 66.1642 50.5247 67.0642 50.1136 67.2802C50.0622 67.7122 49.908 68.2882 49.4969 68.5402C49.4969 68.9722 47.6984 72.2122 45.8484 71.6722C44.1526 71.1682 45.2831 69.3322 45.2831 68.0002C45.5914 64.1842 46.0539 60.1162 40.8123 54.3562C29.9181 42.9442 12.5489 46.3282 2.06567 53.2042C1.14069 53.7802 0.832359 53.3482 1.19208 52.8802C11.9836 41.1802 18.4585 37.8682 26.8348 34.7002C26.3723 32.9002 26.1153 31.2442 26.3723 29.3362C18.5613 28.1842 12.1891 24.2602 8.69475 18.8242C6.38228 14.8282 7.82115 10.3282 7.82115 6.04418C7.71837 4.38818 6.742 2.94818 5.4059 1.61618C5.14896 1.40018 5.66285 1.14818 6.22812 1.36418C8.0267 2.01218 8.95169 3.70418 9.51696 4.92818C11.4183 9.68018 9.72251 15.6922 16.6085 18.8242C20.0001 20.4082 24.882 20.8762 28.9931 20.0842C29.1472 19.8682 29.4042 19.5082 29.5583 19.4002C26.4237 17.7442 23.3404 15.8362 22.9293 12.4522C22.4154 8.42018 21.9015 4.24418 16.7113 1.79618C16.6599 1.65218 16.8655 1.40018 17.328 1.47218C19.846 1.79618 22.0557 3.74018 22.8779 4.53218C26.3723 8.06018 26.1667 13.6762 33.5152 15.0082C34.0805 14.3242 34.3888 12.5602 34.3888 12.5602C44.5123 12.1642 61.5218 15.2242 68.2022 27.3562C69.5383 27.2122 70.5661 26.4562 71.2855 25.5202C72.005 26.7802 71.4397 28.7962 68.9731 29.7682C69.7953 30.9202 69.0244 33.2242 71.9536 33.0442C72.4674 34.5562 71.3883 34.8082 71.3883 34.8082C73.8035 35.8882 74.0091 37.3642 74.0091 37.8682C73.3924 38.0842 72.7244 38.3002 72.1591 38.5522C72.673 39.3802 72.0563 40.2082 71.9022 40.9642C73.2383 41.0002 74.3688 41.1802 74.7799 41.5402C75.448 42.2242 76.8354 44.1682 74.8313 44.7082V44.7082Z" fill="white"/>
<path d="M30.9973 15.0439C28.6335 14.0359 26.7835 12.7759 25.5502 10.3999C25.4988 10.3639 25.3446 10.3279 25.396 10.4359C25.5502 10.8319 25.9613 11.6239 26.1668 12.0199C26.1668 12.1639 25.9613 12.1639 25.8585 12.0919C25.3446 11.6959 24.728 10.3999 24.2655 9.64394C24.2141 9.53594 24.1627 9.60794 24.1113 9.67994C24.3682 10.8679 24.8307 11.9479 25.2932 12.8839C25.3446 13.0279 25.1391 13.0639 25.0363 12.9919C24.4196 12.2719 24.1627 11.4799 23.9058 10.4719C23.8544 10.4359 23.803 10.4359 23.803 10.5079C24.1113 12.3439 24.8821 14.2519 26.0127 15.7279C26.7835 16.5919 28.0168 17.5639 29.6612 17.3479C31.5626 17.0959 31.8709 15.4399 30.9973 15.0439V15.0439Z" fill="white"/>
<path d="M30.3807 26.996C30.8432 27.248 28.3766 27.824 28.6849 28.04C29.0446 28.292 31.7682 26.6 32.539 27.104C32.8988 27.428 30.1752 28.148 30.4321 28.364C30.6891 28.616 33.6696 26.924 34.389 27.248C35.1598 27.644 32.3335 28.436 32.6418 28.58C33.3099 28.904 35.8279 27.176 36.3931 27.572C37.0098 28.004 34.5432 28.652 34.9029 28.868C35.3654 29.192 37.832 27.356 38.5514 27.716C39.1681 28.04 36.5987 28.904 36.8556 29.084C37.2154 29.3 39.7848 28.004 40.2986 28.22C40.9153 28.508 38.8084 29.12 39.0653 29.3C39.3737 29.516 40.9153 28.4 41.3778 28.58C42.2514 28.868 39.9903 29.552 40.4014 29.768C40.7097 29.912 41.5833 29.012 42.2514 29.336C42.7653 29.624 41.4806 30.056 41.7375 30.164C42.0458 30.308 42.7653 29.408 43.3819 29.696C43.6389 29.804 43.125 30.092 43.3305 30.164C43.6903 30.272 44.1528 29.876 44.5125 29.984C44.9236 30.164 44.2555 30.38 44.5639 30.488C44.8722 30.596 45.3347 29.912 46.0027 30.416C49.0346 29.336 52.2207 23.072 42.0972 21.02C35.314 19.436 23.3919 23.396 16.249 19.616C12.3949 17.528 10.288 14.756 10.1338 11.48C10.1338 11.444 10.031 11.408 10.031 11.516C10.031 14.252 10.8019 17.096 13.474 19.328C13.5768 19.436 13.3713 19.544 13.2685 19.472C10.4935 17.672 9.56853 14.756 9.36298 12.38C9.31159 12.272 9.26021 12.272 9.26021 12.416C9.41437 15.584 10.5449 19.256 13.474 20.876C13.5768 20.948 13.4226 21.092 13.2685 21.02C10.4935 19.508 9.2602 16.52 8.64355 14.396C8.59216 14.324 8.54077 14.36 8.54077 14.432C8.69494 16.844 10.8018 22.748 18.8184 25.7C20.9767 26.384 22.467 25.7 22.9295 26.024C23.2378 26.312 21.7989 26.492 21.9017 26.636C22.0559 26.852 23.8544 26.132 24.3683 26.492C24.5225 26.672 23.9572 26.744 24.1114 26.888C24.2655 27.032 25.4989 26.348 26.2183 26.708C26.4752 26.852 25.3447 27.14 25.5502 27.248C25.8072 27.464 27.9141 26.312 28.3766 26.744C28.9419 27.284 26.6294 27.5 26.835 27.752C27.0919 27.968 29.6099 26.6 30.3807 26.996V26.996Z" fill="white"/>
<path d="M63.5774 33.332C63.6802 32.864 63.5261 32.36 63.3719 31.928C62.2927 31.892 60.4942 31.568 60.4942 31.208C60.5969 30.74 63.0122 30.524 64.5538 30.416C64.8621 30.38 64.9135 30.164 64.6052 30.128C63.0122 29.948 61.1622 29.84 59.9803 30.272C59.1581 30.56 57.7706 31.676 57.6678 31.172C57.5136 30.308 57.9247 29.624 58.0789 28.868C57.7706 28.796 57.1539 28.832 56.897 29.048C56.1775 30.992 55.5095 32.792 53.8137 34.412C58.0789 35.456 57.0511 38.948 58.0275 41.396C58.0275 41.396 57.6164 41.72 57.4109 41.396C56.5373 39.596 56.897 37.688 55.4581 36.068C54.9956 35.6 54.0192 35.384 53.0943 35.312C52.1693 36.248 49.8054 36.428 49.8054 40.244C49.9596 40.604 51.1929 39.452 51.6554 39.956C51.3471 43.592 53.5054 45.212 57.2567 44.42C57.9761 42.404 59.0039 40.316 60.5455 38.66C59.0553 35.744 61.6247 33.98 63.5774 33.332V33.332Z" fill="#EEC6A5"/>
<path d="M66.2496 30.956C65.3246 30.992 63.1149 31.028 63.1663 31.208C63.2177 31.424 63.7829 31.316 64.0913 31.388C64.3996 32.252 64.6565 33.944 64.2454 34.196C62.4982 35.06 60.751 36.284 61.2135 37.94C62.2413 37.148 64.0913 35.852 65.9412 35.276C65.5815 34.88 65.4788 33.656 66.3524 33.152C66.7635 33.08 67.3287 33.044 68.3051 33.044C68.7162 33.116 68.8704 33.368 68.7162 33.512C68.4079 33.8 66.5579 33.872 66.969 34.448C67.4315 35.096 69.487 34.124 70.9259 33.908L70.8231 33.368C68.6134 33.188 69.1273 31.316 68.4079 30.272C67.7912 29.696 65.9926 29.876 66.2496 30.956V30.956ZM73.4439 41.756C72.8273 41.612 72.005 41.792 71.2856 41.504C70.3092 41.036 72.005 39.488 71.2342 39.2C70.412 38.876 66.301 42.188 65.7871 44.348C68.5106 43.952 71.5426 43.7 74.6772 43.808C75.1397 43.7 74.8314 42.188 73.4439 41.756V41.756ZM50.6276 41.252C50.422 41.036 49.9081 41.108 49.754 41.396C49.497 42.836 49.3943 44.024 48.9832 45.464C50.1651 47.264 51.3984 49.244 50.6276 51.44C52.6317 49.892 54.8414 48.308 57.4108 47.552L57.1539 45.392C53.0942 45.572 51.1928 44.456 50.6276 41.252V41.252ZM65.4787 45.104C65.2218 45.176 65.2218 45.536 65.4787 45.644C65.7871 45.752 71.4912 44.564 71.3884 44.456C71.1828 44.168 66.969 44.816 65.4787 45.104Z" fill="#EEC6A5"/>
<path d="M28.0169 29.588V30.488C28.7877 30.236 29.5586 29.948 30.2266 29.804L28.0169 29.588ZM49.9597 24.944C54.2763 24.296 59.7748 23.756 64.04 24.008C64.04 24.008 57.6165 13.676 35.314 13.28C34.8515 16.124 32.6418 17.636 30.7919 19.976C44.1528 19.148 47.6472 20.84 49.9597 24.944V24.944ZM61.3164 28.112C59.8262 28.184 59.3123 29.156 59.2609 29.84C61.9331 28.544 65.7872 29.876 68.7163 28.976C69.7441 28.544 70.5149 27.824 70.6177 27.032C67.8941 28.868 65.1705 28.004 61.3164 28.112V28.112ZM31.1516 40.532C31.871 43.736 36.7529 45.896 40.7098 45.356C41.2237 38.408 54.4304 35.672 56.0235 29.048C54.4818 29.156 53.0943 29.48 51.7069 29.732C51.7069 29.732 50.9874 33.548 45.3347 34.772C42.457 35.312 40.1959 34.7 38.8084 34.304C38.2432 34.124 37.4723 34.412 36.9585 34.52C29.9697 36.536 26.3725 41.54 21.7989 45.5C21.6962 45.68 21.6962 45.932 22.0559 46.04C23.392 46.328 25.2933 45.644 26.578 44.924C28.8391 43.52 30.1238 41.9 31.1516 40.532V40.532ZM35.7765 33.404C36.0849 33.26 36.1362 33.008 35.4168 33.08C31.7169 33.728 16.5574 38.012 3.86449 51.296C3.65893 51.476 3.76171 51.62 3.96726 51.512C6.07418 50.072 7.7186 49.208 9.8769 48.2C10.9561 47.696 11.5727 46.832 12.2921 45.968C17.2768 40.1 28.8391 35.276 35.7765 33.404Z" fill="#EEBF1B"/>
<path d="M37.1641 33.8C37.421 33.728 37.2155 33.512 36.9072 33.62C27.2976 36.572 17.2769 40.676 11.8297 47.552C11.727 47.732 12.0353 47.768 12.2408 47.696C14.5533 47.12 16.763 46.724 19.4352 46.184C19.8463 46.112 20.463 45.716 20.5657 45.608C24.8823 41.072 30.0211 36.248 37.1641 33.8ZM73.2386 37.436C73.2386 37.436 72.6219 34.628 68.3567 35.24C66.5581 35.564 63.8345 37.004 62.036 38.588C57.7194 42.296 58.336 46.544 59.1068 50.828C59.1582 51.044 59.3638 51.008 59.3638 50.828C58.9527 47.156 60.3915 44.06 61.5735 42.548C61.8304 42.332 62.1387 42.548 62.036 42.656C59.3124 46.22 60.6999 50.684 58.9527 55.328C58.9013 55.472 59.0555 55.472 59.1068 55.4C60.5971 53.42 60.9054 47.012 62.6526 45.392C62.8068 45.176 63.0123 45.356 62.961 45.5C61.4193 49.028 61.8818 52.304 59.261 55.976C59.2096 56.048 59.3124 56.048 59.3638 56.012C61.5735 53.888 62.3443 49.028 64.0915 45.356C65.5304 42.26 68.2025 38.444 73.2386 37.436ZM49.0348 37.652C48.5209 37.364 39.6307 44.06 41.4807 49.1C42.5085 49.388 43.5876 50.036 44.4098 50.468C44.3584 47.192 48.4181 46.076 48.4181 40.748C48.4181 40.748 47.4931 39.848 47.7501 39.74C47.9556 39.668 48.3667 40.028 48.5209 39.992C48.7264 39.884 49.2403 37.796 49.0348 37.652V37.652ZM31.5114 43.52C31.3058 43.124 30.8947 42.656 30.6892 42.224C29.867 43.412 28.2739 45.032 26.167 45.932C25.8073 46.184 26.7323 46.184 27.2976 46.112C28.8392 45.716 30.4323 44.42 31.5114 43.52ZM36.7016 49.136C34.0294 48.164 32.4878 46.508 32.5906 44.384L32.0767 44.024C31.1517 44.852 29.61 45.86 28.4281 46.472C31.4086 47.084 34.0808 48.02 36.5474 49.532C36.8558 49.64 37.1127 49.244 36.7016 49.136Z" fill="#EEBF1B"/>
<path d="M40.4529 46.364C38.0377 46.472 35.7766 46.04 33.6697 45.032C33.6697 45.032 33.7725 48.272 40.4529 48.812V46.364V46.364ZM48.2125 46.616C47.3903 47.516 44.8723 50.432 44.9751 53.024C46.0028 53.24 46.7737 53.816 47.6473 54.32C48.1097 52.556 50.8847 50.9 49.0861 46.976C48.8806 46.508 48.5209 46.256 48.2125 46.616ZM44.1015 51.008C44.1015 51.008 39.1682 48.704 38.0891 49.532C37.0613 50.144 39.8876 51.98 40.6071 52.268C41.3779 52.628 43.9987 52.664 43.9987 52.664C43.8445 52.088 44.0501 51.548 44.1015 51.008ZM49.4972 58.1C50.4736 56.444 50.9875 53.204 50.0625 52.808C49.6514 52.664 48.1097 55.4 47.5445 56.48C47.9556 56.804 48.7778 57.38 49.4972 58.1V58.1ZM47.1848 54.896C45.6431 53.708 42.6626 53.024 41.9946 53.42C41.5835 53.78 42.3029 54.356 42.6626 54.824C43.4848 55.94 45.0778 56.156 46.6195 56.3C46.7737 55.796 47.0306 55.4 47.1848 54.896ZM48.2639 59.864C48.5722 59.828 49.2917 58.892 49.1375 58.604C48.2639 57.488 45.6431 56.588 44.9751 56.84C44.4612 57.128 44.9237 58.028 45.232 58.424C45.6945 59.18 48.007 59.972 48.2639 59.864V59.864ZM48.932 60.368C49.1889 60.908 49.7028 61.232 49.8569 61.808C50.7305 60.836 51.2444 58.388 50.7305 58.208C50.4222 58.136 49.0861 60.152 48.932 60.368ZM46.2084 60.116C45.9001 60.188 45.9514 61.016 46.1056 61.448C46.2598 62.312 48.4181 63.212 48.7264 63.14C48.932 63.14 49.3944 62.636 49.3944 62.24C48.8806 61.34 46.825 60.008 46.2084 60.116V60.116ZM49.2917 63.716L50.3194 64.724C51.1416 63.932 51.5014 62.204 51.0389 61.952C50.7305 61.808 49.8569 63.068 49.2917 63.716V63.716ZM46.6709 63.14C46.3112 63.068 46.2598 63.788 46.6709 63.968C47.8528 64.544 48.8292 65.372 49.3944 66.308C49.6514 66.596 49.9083 66.056 49.8056 65.66C49.4972 64.688 48.1097 63.464 46.6709 63.14ZM47.082 64.94C46.7737 64.76 46.0542 65.264 46.5167 65.516C47.2875 65.984 48.675 66.992 48.9833 67.424C49.7542 66.992 48.2639 65.588 47.082 64.94ZM46.8764 66.668C46.5167 66.596 46.2084 67.028 46.5167 67.136C47.1848 67.532 47.9042 68.036 48.4181 68.504C48.5208 68.576 48.7264 68.468 48.7264 68.252C48.3667 67.64 47.6986 66.884 46.8764 66.668V66.668ZM46.4653 67.928C46.2598 67.892 46.0542 68.288 46.3112 68.468C47.0306 68.792 47.2361 69.116 47.8014 69.548C48.007 69.656 48.1611 69.476 48.1097 69.332C47.9042 68.756 47.0306 68.108 46.4653 67.928ZM46.3112 69.26C45.8487 69.836 45.4376 70.88 46.1056 71.132C46.7737 71.312 47.2361 70.34 47.3903 70.052C47.082 69.8 46.7223 69.476 46.3112 69.26Z" fill="#EEBF1B"/>
</g>
<defs>
<clipPath id="clip0_3801_245">
<rect width="77" height="72" fill="white" transform="translate(0 0.5)"/>
</clipPath>
</defs>
</svg>
